<svg width="461" height="199" viewBox="0 0 461 199" fill="none" xmlns="http://www.w3.org/2000/svg">
<g filter="url(#filter0_i_230_42)">
<path fill-rule="evenodd" clip-rule="evenodd" d="M68.8521 23.1198C61.4119 26.1281 54.5085 30.1448 48.3368 35.0165C42.0769 39.9578 36.5698 45.7786 32.0187 52.3187C22.8905 65.4363 18.0183 80.8584 18.0183 96.6348C18.0183 112.411 22.8905 127.833 32.0187 140.951C36.5697 147.491 42.0769 153.312 48.3367 158.253C54.5085 163.125 61.4118 167.142 68.8521 170.15C69.0014 170.21 69.151 170.27 69.3008 170.33C84.4805 176.367 101.184 177.947 117.298 174.869C117.384 174.853 117.469 174.836 117.554 174.82C130.924 172.224 143.382 166.516 153.856 158.246C155.78 156.726 157.637 155.121 159.421 153.432L112.592 107.135L124.543 95.0455L213.435 182.927L201.484 195.017L171.562 165.436C169.252 167.618 166.84 169.685 164.336 171.632C162.542 173.026 160.7 174.36 158.816 175.629C147.432 183.299 134.461 188.652 120.698 191.281C120.613 191.297 120.528 191.313 120.442 191.329C101.185 194.957 81.2449 193.092 63.0815 185.967C62.9315 185.908 62.7816 185.849 62.6319 185.789C53.6593 182.221 45.3237 177.443 37.8565 171.638C30.0407 165.563 23.1764 158.363 17.5289 150.247C6.48578 134.378 0.591556 115.721 0.591553 96.6348C0.59155 77.5489 6.48577 58.8916 17.5288 43.0223C23.1768 34.9059 30.0419 27.7053 37.8585 21.6296C45.3252 15.8259 53.6601 11.0488 62.6319 7.48045C62.7816 7.42089 62.9315 7.36168 63.0815 7.30283C81.2449 0.177373 101.185 -1.68764 120.442 1.94048C120.527 1.95656 120.613 1.97274 120.698 1.98904C134.461 4.61764 147.432 9.97099 158.816 17.6402C160.7 18.91 162.542 20.2432 164.336 21.6381C167.055 23.7523 169.666 26.0081 172.156 28.399L172.149 28.4052L300.911 158.041L300.914 158.039C302.823 159.872 304.818 161.609 306.891 163.246C317.366 171.516 329.823 177.224 343.193 179.82L343.347 179.85L343.449 179.869C359.564 182.947 376.267 181.367 391.447 175.33L391.582 175.276C391.687 175.234 391.791 175.192 391.895 175.15C399.335 172.142 406.238 168.125 412.41 163.254C418.67 158.312 424.177 152.491 428.729 145.951C437.857 132.833 442.729 117.411 442.729 101.635C442.729 85.8585 437.857 70.4364 428.729 57.3188C424.178 50.7787 418.67 44.9579 412.411 40.0166C406.239 35.1449 399.335 31.1281 391.895 28.1199L391.72 28.0493C391.629 28.0127 391.538 27.9762 391.447 27.9399C376.267 21.9025 359.564 20.3229 343.449 23.4007L343.325 23.4244L343.193 23.45C329.823 26.0455 317.365 31.7537 306.891 40.0245C304.877 41.6143 302.937 43.2988 301.078 45.074L345.436 88.9273L333.484 101.017L244.592 13.1348L256.544 1.04549L288.936 33.0699C291.322 30.8009 293.818 28.6551 296.412 26.6382C298.206 25.2433 300.047 23.91 301.932 22.6402C313.315 14.971 326.287 9.61769 340.049 6.98908C340.135 6.97279 340.22 6.9566 340.305 6.94052C359.562 3.3124 379.502 5.17742 397.666 12.3029C397.816 12.3617 397.966 12.4209 398.115 12.4805C407.087 16.0488 415.422 20.826 422.889 26.6296C430.705 32.7053 437.57 39.906 443.218 48.0223C454.262 63.8917 460.156 82.549 460.156 101.635C460.156 120.721 454.262 139.378 443.218 155.247C437.571 163.363 430.706 170.564 422.89 176.639C415.423 182.443 407.088 187.221 398.115 190.789C397.966 190.849 397.816 190.908 397.666 190.967C379.502 198.092 359.562 199.957 340.305 196.329C340.22 196.313 340.134 196.297 340.049 196.281C326.286 193.652 313.315 188.299 301.932 180.63C300.047 179.36 298.206 178.026 296.412 176.632C293.83 174.624 291.346 172.49 288.971 170.233L288.966 170.238L288.798 170.068C288.729 170.003 288.66 169.937 288.592 169.871L288.597 169.866L159.835 40.2296L159.833 40.2311C157.924 38.398 155.929 36.6609 153.856 35.0242C143.382 26.7535 130.924 21.0454 117.554 18.4499C117.469 18.4334 117.384 18.417 117.298 18.4007C101.184 15.3228 84.4804 16.9025 69.3008 22.9399C69.151 22.9994 69.0014 23.0594 68.8521 23.1198Z" fill="url(#paint0_linear_230_42)"/>
</g>
<defs>
<filter id="filter0_i_230_42" x="0.591553" y="0.134766" width="459.564" height="202" filterUnits="userSpaceOnUse" color-interpolation-filters="sRGB">
<feFlood flood-opacity="0" result="BackgroundImageFix"/>
<feBlend mode="normal" in="SourceGraphic" in2="BackgroundImageFix" result="shape"/>
<feColorMatrix in="SourceAlpha" type="matrix" values="0 0 0 0 0 0 0 0 0 0 0 0 0 0 0 0 0 0 127 0" result="hardAlpha"/>
<feOffset dy="4"/>
<feGaussianBlur stdDeviation="2"/>
<feComposite in2="hardAlpha" operator="arithmetic" k2="-1" k3="1"/>
<feColorMatrix type="matrix" values="0 0 0 0 0 0 0 0 0 0 0 0 0 0 0 0 0 0 0.25 0"/>
<feBlend mode="normal" in2="shape" result="effect1_innerShadow_230_42"/>
</filter>
<linearGradient id="paint0_linear_230_42" x1="460.156" y1="99.1348" x2="0.591553" y2="99.1348" gradientUnits="userSpaceOnUse">
<stop stop-color="#D75A00"/>
<stop offset="1" stop-color="#005BAF"/>
</linearGradient>
</defs>
</svg>
